<svg preserveAspectRatio="none" overflow="visible" style="display: block;" width="12" height="12.0002" viewBox="0 0 12 12.0002" fill="none" xmlns="http://www.w3.org/2000/svg">
<g id="icon">
<path id="Vector" d="M5.62695 2.99999C6.45537 2.99999 7.12694 2.32842 7.12694 1.5C7.12694 0.671571 6.45537 0 5.62695 0C4.79852 0 4.12695 0.671571 4.12695 1.5C4.12695 2.32842 4.79852 2.99999 5.62695 2.99999Z" fill="currentColor"/>
<path id="Vector_2" d="M4.41466 5.57993L4.74592 7.56752C4.81261 7.96774 5.01911 8.33133 5.32867 8.59362C5.63824 8.8559 6.03081 8.99988 6.43655 8.99992L8.64114 9.00023C8.73854 9.00024 8.83243 9.03666 8.90435 9.10235C8.97627 9.16804 9.02103 9.25824 9.02985 9.35524L9.23493 11.6105C9.24463 11.717 9.29379 11.816 9.37278 11.8881C9.45177 11.9603 9.55486 12.0002 9.66182 12.0002H10.1275C10.1838 12.0002 10.2395 11.9891 10.2915 11.9676C10.3435 11.9461 10.3908 11.9145 10.4306 11.8747C10.4704 11.8349 10.502 11.7877 10.5235 11.7357C10.545 11.6837 10.5561 11.6279 10.5561 11.5716L10.5235 9.10235C10.5235 8.87502 10.4922 8 10.2915 7.78436C10.1274 7.5 9.46226 7.28596 9.23493 7.28595H8.02978C7.17228 7.28588 7.39219 5.68821 7.34382 5.15492C7.2935 4.81799 7.13195 4.50758 6.88486 4.27306C6.63777 4.03854 6.31935 3.8934 5.98026 3.86073C5.75698 3.8447 5.53297 3.87954 5.32511 3.96262C5.11724 4.0457 4.93094 4.17486 4.78021 4.34037C4.62949 4.50588 4.51828 4.70342 4.45496 4.91813C4.39164 5.13285 4.37786 5.35912 4.41466 5.57993Z" fill="currentColor"/>
<path id="Vector_3" d="M2.85356 3.87207C2.83947 3.75929 2.78115 3.65674 2.69143 3.58696C2.60172 3.51718 2.48796 3.4859 2.37519 3.5C2.26241 3.5141 2.15985 3.57242 2.09008 3.66213C2.0203 3.75184 1.98902 3.8656 2.00312 3.97838L2.99981 8.15798C3.09051 8.88351 3.44307 9.55094 3.99122 10.0348C4.53938 10.5187 5.24539 10.7857 5.97657 10.7857H7.56362C7.67728 10.7857 7.78629 10.7405 7.86666 10.6602C7.94704 10.5798 7.99219 10.4708 7.99219 10.3571C7.99219 10.2435 7.94704 10.1345 7.86666 10.0541C7.78629 9.97371 7.67728 9.92856 7.56362 9.92856H5.97655C5.45426 9.92856 4.94994 9.73781 4.55839 9.39215C4.16684 9.04649 3.91501 8.56973 3.85023 8.05147L2.85356 3.87207Z" fill="currentColor"/>
</g>
</svg>
